<svg width="17" height="17" viewBox="0 0 17 17" fill="none" xmlns="http://www.w3.org/2000/svg">
<path d="M8.49675 15.1666C12.1786 15.1666 15.1634 12.1819 15.1634 8.49998C15.1634 4.81808 12.1786 1.83331 8.49675 1.83331C4.81485 1.83331 1.83008 4.81808 1.83008 8.49998C1.83008 12.1819 4.81485 15.1666 8.49675 15.1666Z" stroke="#B7C3D6" stroke-linecap="round" stroke-linejoin="round"/>
<path d="M5.82982 2.5H6.49648C5.19648 6.39333 5.19648 10.6067 6.49648 14.5H5.82982" stroke="#B7C3D6" stroke-linecap="round" stroke-linejoin="round"/>
<path d="M10.4961 2.5C11.7961 6.39333 11.7961 10.6067 10.4961 14.5" stroke="#B7C3D6" stroke-linecap="round" stroke-linejoin="round"/>
<path d="M2.49609 11.1667V10.5C6.38943 11.8 10.6028 11.8 14.4961 10.5V11.1667" stroke="#B7C3D6" stroke-linecap="round" stroke-linejoin="round"/>
<path d="M2.49609 6.50002C6.38943 5.20002 10.6028 5.20002 14.4961 6.50002" stroke="#B7C3D6" stroke-linecap="round" stroke-linejoin="round"/>
</svg>
