<svg width="16" height="17" viewBox="0 0 16 17" fill="none" xmlns="http://www.w3.org/2000/svg">
<path d="M14.5397 3.12667C13.513 5.68667 10.9397 9.16667 8.78635 10.8933L7.47302 11.9467C7.30635 12.0667 7.13969 12.1733 6.95302 12.2467C6.95302 12.1267 6.94635 11.9933 6.92635 11.8667C6.85302 11.3067 6.59969 10.7867 6.15302 10.34C5.69969 9.88667 5.14635 9.62 4.57969 9.54667C4.44635 9.54 4.31302 9.52667 4.17969 9.54C4.25302 9.33334 4.36635 9.14 4.50635 8.98L5.54635 7.66667C7.26635 5.51334 10.7597 2.92667 13.313 1.90667C13.7064 1.76 14.0864 1.86667 14.3264 2.11334C14.5797 2.36 14.6997 2.74 14.5397 3.12667Z" stroke="#4790FF" stroke-width="1.5" stroke-linecap="round" stroke-linejoin="round"/>
<path d="M6.95417 12.2467C6.95417 12.98 6.67417 13.68 6.1475 14.2133C5.74083 14.62 5.1875 14.9 4.5275 14.9867L2.8875 15.1667C1.99417 15.2667 1.2275 14.5067 1.33417 13.6L1.51417 11.96C1.67417 10.5 2.89417 9.56667 4.1875 9.54C4.32083 9.53333 4.46083 9.54 4.5875 9.54667C5.15417 9.62 5.7075 9.88 6.16083 10.34C6.6075 10.7867 6.86083 11.3067 6.93417 11.8667C6.94083 11.9933 6.95417 12.12 6.95417 12.2467Z" stroke="#4790FF" stroke-width="1.5" stroke-linecap="round" stroke-linejoin="round"/>
<path d="M9.49318 10.1467C9.49318 8.40667 8.07984 6.99333 6.33984 6.99333" stroke="#4790FF" stroke-width="1.5" stroke-linecap="round" stroke-linejoin="round"/>
</svg>
